<svg xmlns="http://www.w3.org/2000/svg" width="106.351" height="29.791" viewBox="0 0 106.351 29.791">
  <g id="Group_2" data-name="Group 2" transform="translate(-358.381 -482.462)">
    <path id="Path_1" data-name="Path 1" d="M360.633,512.253v-18.7h-2.252v-1.147h2.252a8.746,8.746,0,0,1,.978-4.037,10.229,10.229,0,0,1,2.443-3.166,13.318,13.318,0,0,1,3.081-2,7.107,7.107,0,0,1,2.932-.744,9.428,9.428,0,0,1,3.888.659,11.392,11.392,0,0,1,2.954,2.1l-3.145,3.145a9.31,9.31,0,0,0-2.677-3.591,2.985,2.985,0,0,0-4.568.17,6.033,6.033,0,0,0-.935,2.529,26.557,26.557,0,0,0-.361,4.93h5.312v1.147h-5.312v18.7Z" transform="translate(0 0)" fill="#d84141"/>
    <path id="Path_2" data-name="Path 2" d="M405.73,516.164a9.9,9.9,0,0,1,9.944,9.9H400.928q.127.723.3,1.4a12.105,12.105,0,0,0,2.72,5.609q1.912,2.083,3.782,1.487,1.912-.594,2.635-3.527l2.252,2.21a9.925,9.925,0,0,1-13.9-14.173,9.513,9.513,0,0,1,7.012-2.911m-4.93,8.755h9.52l-.042-.212a11.973,11.973,0,0,0-2.72-5.589q-1.912-2.061-3.782-1.509a3.84,3.84,0,0,0-2.337,2.507,11.11,11.11,0,0,0-.638,4.8" transform="translate(-26.398 -23.758)" fill="#d84141"/>
    <path id="Path_3" data-name="Path 3" d="M471.155,536.011V517.694l4.59-1.53v1.785a7.9,7.9,0,0,1,9.137-.616,9.356,9.356,0,0,1,3.145,3.209,6.937,6.937,0,0,1,2.656-3.294,7.144,7.144,0,0,1,3.889-1.084,7.974,7.974,0,0,1,6.184,2.911,10.2,10.2,0,0,1,2.571,6.991v9.945h-4.547v-12.2a7.448,7.448,0,0,0-1.424-4.611,4.524,4.524,0,0,0-3.8-1.891,4.331,4.331,0,0,0-4.037,4.377v14.322h-4.547v-12.2a8.2,8.2,0,0,0-.616-3.208,5.674,5.674,0,0,0-1.827-2.38,4.5,4.5,0,0,0-2.784-.914,3.3,3.3,0,0,0-1,.17,4.515,4.515,0,0,0-1.084.531,4.4,4.4,0,0,0-.977.871,3.96,3.96,0,0,0-.68,1.232,4.7,4.7,0,0,0-.255,1.572v14.322Z" transform="translate(-79.499 -23.758)" fill="#d84141"/>
    <path id="Path_4" data-name="Path 4" d="M598.3,516.164a9.9,9.9,0,0,1,9.944,9.9H593.494q.127.723.3,1.4a12.108,12.108,0,0,0,2.72,5.609q1.913,2.083,3.782,1.487,1.912-.594,2.635-3.527l2.252,2.21a9.925,9.925,0,0,1-13.9-14.173,9.514,9.514,0,0,1,7.012-2.911m-4.93,8.755h9.52l-.043-.212a11.965,11.965,0,0,0-2.72-5.589q-1.912-2.061-3.782-1.509A3.841,3.841,0,0,0,594,520.116a11.115,11.115,0,0,0-.637,4.8" transform="translate(-162.145 -23.758)" fill="#d84141"/>
    <path id="Path_5" data-name="Path 5" d="M670.122,516.153a8.881,8.881,0,0,1,3.867,1.636,7.893,7.893,0,0,1,2.4,3.039,17.734,17.734,0,0,1,1.254,4.208,27.945,27.945,0,0,1,.4,5.121q-.022,2.741-.106,5.716h-4.547v-.893a8.733,8.733,0,0,1-4.037.935,8.569,8.569,0,0,1-5.928-2.189,6.9,6.9,0,0,1,0-10.539A8.573,8.573,0,0,1,669.357,521a9.02,9.02,0,0,1,4.165.977q-.808-5.1-3.485-5.312a4.212,4.212,0,0,0-3.251,1.487,8.679,8.679,0,0,0-2.231,3.4q-.425-.3-1.721-1.232T660.985,519a13.38,13.38,0,0,1,4.377-2.444,9.946,9.946,0,0,1,4.76-.4m.425,17.594a10.3,10.3,0,0,0,2.486-4.4,9.69,9.69,0,0,0,.34-4.93q-.489-2.189-2.019-2.529a2.255,2.255,0,0,0-1.3.042,4.077,4.077,0,0,0-1.275.7,7.722,7.722,0,0,0-1.211,1.233,9.935,9.935,0,0,0-1.084,1.7,10.835,10.835,0,0,0-.786,2.019,9.291,9.291,0,0,0-.34,4.908q.51,2.189,2,2.529,1.53.383,3.187-1.275" transform="translate(-213.317 -23.662)" fill="#d84141"/>
  </g>
</svg>
