<svg xmlns="http://www.w3.org/2000/svg" width="17.789" height="17.789" viewBox="0 0 17.789 17.789">
  <path id="Icon_ionic-logo-facebook" data-name="Icon ionic-logo-facebook" d="M21.306,4.5H5.482a.983.983,0,0,0-.982.982V21.306a.983.983,0,0,0,.982.982h7.912V15.247H11.268V12.653h2.126V10.735A3.38,3.38,0,0,1,17.04,7.187c.982,0,2.038.074,2.284.107v2.4H17.689c-1.116,0-1.33.528-1.33,1.306v1.654h2.659l-.347,2.594H16.359v7.041h4.947a.983.983,0,0,0,.982-.982V5.482A.983.983,0,0,0,21.306,4.5Z" transform="translate(-4.5 -4.5)" fill="#5e7db7"/>
</svg>
