<svg xmlns="http://www.w3.org/2000/svg" width="20.937" height="20.932" viewBox="0 0 20.937 20.932">
  <path id="Icon_awesome-instagram" data-name="Icon awesome-instagram" d="M10.465,7.337A5.367,5.367,0,1,0,15.832,12.7,5.358,5.358,0,0,0,10.465,7.337Zm0,8.856A3.489,3.489,0,1,1,13.954,12.7a3.5,3.5,0,0,1-3.489,3.489ZM17.3,7.117a1.252,1.252,0,1,1-1.252-1.252A1.249,1.249,0,0,1,17.3,7.117Zm3.554,1.27A6.2,6.2,0,0,0,19.167,4a6.235,6.235,0,0,0-4.386-1.691c-1.728-.1-6.908-.1-8.636,0A6.226,6.226,0,0,0,1.759,4,6.215,6.215,0,0,0,.068,8.383c-.1,1.728-.1,6.908,0,8.636a6.2,6.2,0,0,0,1.691,4.386A6.243,6.243,0,0,0,6.145,23.1c1.728.1,6.908.1,8.636,0a6.2,6.2,0,0,0,4.386-1.691,6.235,6.235,0,0,0,1.691-4.386c.1-1.728.1-6.9,0-8.631ZM18.625,18.874a3.532,3.532,0,0,1-1.99,1.99c-1.378.546-4.647.42-6.17.42s-4.8.121-6.17-.42a3.532,3.532,0,0,1-1.99-1.99c-.546-1.378-.42-4.647-.42-6.17s-.121-4.8.42-6.17A3.532,3.532,0,0,1,4.3,4.544c1.378-.546,4.647-.42,6.17-.42s4.8-.121,6.17.42a3.532,3.532,0,0,1,1.99,1.99c.546,1.378.42,4.647.42,6.17S19.172,17.5,18.625,18.874Z" transform="translate(0.005 -2.238)" fill="#5e7db7"/>
</svg>
