<svg xmlns="http://www.w3.org/2000/svg" width="23.271" height="16.362" viewBox="0 0 23.271 16.362">
  <path id="Icon_awesome-youtube" data-name="Icon awesome-youtube" d="M23.834,7.06a2.924,2.924,0,0,0-2.057-2.071C19.962,4.5,12.685,4.5,12.685,4.5s-7.277,0-9.092.489A2.924,2.924,0,0,0,1.536,7.06,30.674,30.674,0,0,0,1.05,12.7a30.674,30.674,0,0,0,.486,5.637,2.88,2.88,0,0,0,2.057,2.038c1.815.489,9.092.489,9.092.489s7.277,0,9.092-.489a2.88,2.88,0,0,0,2.057-2.038,30.674,30.674,0,0,0,.486-5.637,30.674,30.674,0,0,0-.486-5.637Zm-13.529,9.1V9.238l6.082,3.46-6.082,3.46Z" transform="translate(-1.05 -4.5)" fill="#5e7db7"/>
</svg>
