<svg xmlns="http://www.w3.org/2000/svg" width="31.518" height="22.161" viewBox="0 0 31.518 22.161"><path d="M31.909,7.967a3.96,3.96,0,0,0-2.786-2.8C26.665,4.5,16.809,4.5,16.809,4.5S6.953,4.5,4.5,5.163a3.96,3.96,0,0,0-2.786,2.8A41.544,41.544,0,0,0,1.05,15.6a41.544,41.544,0,0,0,.659,7.635A3.9,3.9,0,0,0,4.5,26c2.458.663,12.314.663,12.314.663s9.856,0,12.314-.663a3.9,3.9,0,0,0,2.786-2.76,41.544,41.544,0,0,0,.659-7.635,41.544,41.544,0,0,0-.659-7.635ZM13.585,20.289V10.917L21.823,15.6l-8.238,4.686Z" transform="translate(-1.05 -4.5)" fill="#fff"/></svg>