<svg xmlns="http://www.w3.org/2000/svg" width="25.195" height="27.784" viewBox="0 0 25.195 27.784">
  <path id="Icon_simple-email" data-name="Icon simple-email" d="M26.847,12.823a14.329,14.329,0,0,1-.462,3.108,8.993,8.993,0,0,1-1.208,2.729A6.376,6.376,0,0,1,23.129,20.6a5.782,5.782,0,0,1-2.991.738,4.337,4.337,0,0,1-2.163-.53,3.7,3.7,0,0,1-1.462-1.5,4.634,4.634,0,0,1-3.92,1.969,3.986,3.986,0,0,1-3.422-1.84,6.025,6.025,0,0,1-.851-2.132,9.2,9.2,0,0,1-.111-2.781,12.92,12.92,0,0,1,.847-3.406,9.259,9.259,0,0,1,1.566-2.609,6.625,6.625,0,0,1,2.153-1.663,6.007,6.007,0,0,1,2.618-.582,8.141,8.141,0,0,1,1.566.134,6.41,6.41,0,0,1,1.215.365,6.572,6.572,0,0,1,1.007.531c.307.2.616.4.924.611l-.76,8.75a2.909,2.909,0,0,0,.023,1.024,1.433,1.433,0,0,0,.313.632,1.125,1.125,0,0,0,.507.33,1.882,1.882,0,0,0,1.781-.351,3.8,3.8,0,0,0,.955-1.215,7.827,7.827,0,0,0,.642-1.826,12.532,12.532,0,0,0,.281-2.274,14.535,14.535,0,0,0-.358-4.25,8.448,8.448,0,0,0-1.573-3.288A7.3,7.3,0,0,0,19.1,3.318a10.234,10.234,0,0,0-4.108-.752,9.07,9.07,0,0,0-4.063.885A9.321,9.321,0,0,0,7.838,5.906,11.782,11.782,0,0,0,5.817,9.6a16.642,16.642,0,0,0-.851,4.6A15.3,15.3,0,0,0,5.4,18.895a8.479,8.479,0,0,0,1.715,3.365,7.158,7.158,0,0,0,2.906,2.021,11.148,11.148,0,0,0,4.011.67,13.737,13.737,0,0,0,2.632-.283c.434-.087.846-.191,1.238-.306a9.317,9.317,0,0,0,1.066-.382l.55,2.476a6.11,6.11,0,0,1-1.193.59,11.481,11.481,0,0,1-1.41.408,13.756,13.756,0,0,1-2.945.33A15.442,15.442,0,0,1,8.6,26.919,9.88,9.88,0,0,1,4.69,24.346,10.806,10.806,0,0,1,2.341,20.1a18.122,18.122,0,0,1-.656-5.9A17.987,17.987,0,0,1,2.814,8.54a14.008,14.008,0,0,1,2.719-4.5A12.389,12.389,0,0,1,9.68,1.076,12.986,12.986,0,0,1,15.052,0a13.558,13.558,0,0,1,5.205.932,10.124,10.124,0,0,1,3.757,2.622A10.759,10.759,0,0,1,26.243,7.6,15.488,15.488,0,0,1,26.847,12.823Zm-14.91,1.7a5.906,5.906,0,0,0,.306,2.929,1.57,1.57,0,0,0,1.51.99,1.668,1.668,0,0,0,.517-.1,1.845,1.845,0,0,0,.6-.358,3.178,3.178,0,0,0,.6-.729,5.6,5.6,0,0,0,.556-1.233l.594-6.8a3.547,3.547,0,0,0-.924-.122,3.194,3.194,0,0,0-1.537.352A3.042,3.042,0,0,0,13.071,10.5a6.077,6.077,0,0,0-.722,1.7,14.433,14.433,0,0,0-.41,2.326Z" transform="translate(-1.67)" fill="#fff"/>
</svg>
