<svg xmlns="http://www.w3.org/2000/svg" width="28.719" height="28.717" viewBox="0 0 28.719 28.717">
  <path id="Icon_awesome-facebook-messenger" data-name="Icon awesome-facebook-messenger" d="M14.954.563C6.846.563.563,6.488.563,14.492a13.613,13.613,0,0,0,4.52,10.3c.483.435.384.687.466,3.372a1.153,1.153,0,0,0,1.614,1.017c3.064-1.349,3.1-1.456,3.622-1.314,8.876,2.443,18.5-3.237,18.5-13.377C29.281,6.488,23.062.563,14.954.563Zm8.641,10.719-4.227,6.692a2.164,2.164,0,0,1-3.121.575l-3.363-2.517a.869.869,0,0,0-1.042,0L7.3,19.473a.683.683,0,0,1-.991-.907l4.227-6.692a2.163,2.163,0,0,1,3.121-.575l3.362,2.516a.869.869,0,0,0,1.042,0l4.54-3.438a.681.681,0,0,1,.99.9Z" transform="translate(-0.563 -0.563)" fill="#fff"/>
</svg>
